<svg width="60" height="56" viewBox="0 0 60 56" fill="none" xmlns="http://www.w3.org/2000/svg">
<path d="M30 55.05L25.65 51.09C10.2 37.08 0 27.81 0 16.5C0 7.23 7.26 0 16.5 0C21.72 0 26.73 2.43 30 6.24C33.27 2.43 38.28 0 43.5 0C52.74 0 60 7.23 60 16.5C60 27.81 49.8 37.08 34.35 51.09L30 55.05Z" fill="#FF99FE"/>
<path d="M16.7006 32.2198C15.2729 32.2198 14.1331 31.7016 13.2811 30.6654C12.429 29.6292 12.003 28.2706 12.003 26.5896C12.003 24.7474 12.429 23.0088 13.2811 21.3738C14.1331 19.7159 15.2614 18.3918 16.6661 17.4016C18.0938 16.3884 19.6021 15.8818 21.191 15.8818C21.6976 15.8818 22.0315 15.9854 22.1927 16.1927C22.3769 16.3769 22.5266 16.7223 22.6417 17.2289C23.1253 17.1368 23.6319 17.0907 24.1615 17.0907C25.2899 17.0907 25.854 17.4937 25.854 18.2997C25.854 18.7832 25.6813 19.9346 25.3359 21.7538C24.8063 24.4019 24.5415 26.2441 24.5415 27.2804C24.5415 27.6258 24.6221 27.9021 24.7833 28.1094C24.9675 28.3166 25.1978 28.4202 25.4741 28.4202C25.9116 28.4202 26.4412 28.1439 27.063 27.5912C27.6847 27.0156 28.5252 26.0945 29.5845 24.828C29.8608 24.5056 30.1717 24.3444 30.5171 24.3444C30.8165 24.3444 31.0467 24.4825 31.2079 24.7589C31.3921 25.0352 31.4843 25.4152 31.4843 25.8987C31.4843 26.8198 31.2655 27.5337 30.828 28.0403C29.8838 29.2147 28.8822 30.2049 27.8229 31.0108C26.7636 31.8168 25.7389 32.2198 24.7487 32.2198C23.9888 32.2198 23.2865 31.9665 22.6417 31.4599C22.02 30.9302 21.5479 30.2164 21.2255 29.3183C20.0281 31.2526 18.5198 32.2198 16.7006 32.2198ZM17.9441 28.7311C18.4507 28.7311 18.9343 28.4317 19.3948 27.833C19.8554 27.2343 20.1893 26.4399 20.3965 25.4497L21.6746 19.0941C20.7074 19.1171 19.8093 19.4856 18.9804 20.1994C18.1744 20.8903 17.5296 21.8114 17.046 22.9627C16.5625 24.1141 16.3207 25.3346 16.3207 26.6241C16.3207 27.3379 16.4588 27.8676 16.7352 28.213C17.0345 28.5584 17.4375 28.7311 17.9441 28.7311ZM29.4023 32.2198C28.5273 32.2198 27.9056 31.7592 27.5371 30.8381C27.1917 29.917 27.019 28.4433 27.019 26.4168C27.019 23.4233 27.445 20.5794 28.297 17.8852C28.5043 17.2174 28.8382 16.7338 29.2987 16.4344C29.7823 16.1121 30.4501 15.9509 31.3021 15.9509C31.7627 15.9509 32.085 16.0084 32.2693 16.1236C32.4535 16.2387 32.5456 16.4575 32.5456 16.7799C32.5456 17.1483 32.3729 17.9773 32.0275 19.2668C31.7972 20.1879 31.613 20.9939 31.4748 21.6847C31.3366 22.3525 31.2215 23.193 31.1294 24.2062C31.7511 22.4101 32.488 20.8903 33.34 19.6468C34.2151 18.4033 35.1016 17.4822 35.9997 16.8835C36.9208 16.2617 37.7843 15.9509 38.5903 15.9509C39.3963 15.9509 39.9604 16.1351 40.2828 16.5035C40.6282 16.872 40.8009 17.4361 40.8009 18.196C40.8009 18.9329 40.5822 20.2685 40.1446 22.2028C39.9604 23.0318 39.8338 23.6536 39.7647 24.068C40.5246 22.1337 41.3651 20.5564 42.2862 19.3359C43.2303 18.1154 44.1514 17.2519 45.0495 16.7453C45.9476 16.2157 46.7766 15.9509 47.5365 15.9509C48.2733 15.9509 48.826 16.1466 49.1944 16.5381C49.5859 16.9065 49.7816 17.4592 49.7816 18.196C49.7816 18.7948 49.655 19.9231 49.4017 21.5811C49.1714 22.9858 48.9872 24.3213 48.849 25.5879C48.7109 26.8313 48.6418 28.2245 48.6418 29.7673C48.6418 30.6424 48.4576 31.2756 48.0891 31.6671C47.7437 32.0355 47.168 32.2198 46.3621 32.2198C45.6022 32.2198 45.0495 32.024 44.7041 31.6326C44.3587 31.2411 44.186 30.6539 44.186 29.871C44.186 28.9499 44.3472 27.4301 44.6695 25.3115C44.9459 23.4693 45.084 22.2949 45.084 21.7883C45.084 21.4199 44.9574 21.2357 44.7041 21.2357C44.4047 21.2357 43.9787 21.6271 43.4261 22.4101C42.8734 23.17 42.3207 24.1832 41.7681 25.4497C41.2154 26.7162 40.7664 28.0518 40.421 29.4565C40.1677 30.5618 39.8683 31.2987 39.5229 31.6671C39.2005 32.0355 38.6709 32.2198 37.934 32.2198C37.1741 32.2198 36.5984 31.8628 36.207 31.149C35.8385 30.4121 35.6543 29.5256 35.6543 28.4893C35.6543 27.6143 35.7694 26.3478 35.9997 24.6898C36.1839 23.216 36.276 22.2489 36.276 21.7883C36.276 21.4199 36.1494 21.2357 35.8961 21.2357C35.5507 21.2357 35.1131 21.6502 34.5835 22.4792C34.0539 23.3081 33.5358 24.3674 33.0292 25.6569C32.5456 26.9465 32.1541 28.213 31.8548 29.4565C31.6015 30.5388 31.3021 31.2756 30.9567 31.6671C30.6343 32.0355 30.1162 32.2198 29.4023 32.2198Z" fill="#04322E"/>
</svg>
